<?xml version="1.0" encoding="utf-8"?>
<!-- Generator: Adobe Illustrator 22.0.0, SVG Export Plug-In . SVG Version: 6.00 Build 0)  -->
<svg version="1.1" id="Layer_1" xmlns="http://www.w3.org/2000/svg" xmlns:xlink="http://www.w3.org/1999/xlink" x="0px" y="0px"
	 viewBox="0 0 8207.7 2500" style="enable-background:new 0 0 8207.7 2500;" xml:space="preserve">
<style type="text/css">
	.st0{fill:#02B3E4;}
</style>
<g id="_x38_0-mark-white">
	<path id="mark_28_" class="st0" d="M700.8,196.1L0,601.8v927.5c0,426.9,342.5,774.7,769.4,774.7c142.3,0,274-36.9,390-100.2
		l569.1-326.7c226.6-121.2,379.4-353,379.4-627V280.4l-137-79.1l-600.7,321.5v1011.8c0,42.2-5.2,84.3-10.5,126.5
		c-10.5,42.2-21.1,79.1-36.9,115.9l-15.8,31.6c-21.1,0-152.8-47.4-221.3-94.9c-31.6-21.1-58-42.2-84.3-68.5
		c-26.3-26.3-47.4-52.7-68.5-84.3c-21.1-31.6-36.9-63.2-52.7-94.9c-15.8-31.6-26.3-68.5-31.6-105.4c-5.2-36.9-5.2-73.8-5.2-110.6
		V280.4L700.8,196.1z M1043.4,2103.7c-36.9,15.9-89.6,36.9-131.7,47.5c-42.2,10.5-79.1,10.5-121.2,10.5c-42.2,0-84.3-5.2-126.5-15.9
		c-42.2-10.5-79.1-21.1-115.9-36.9c-36.9-15.9-73.8-36.9-105.4-58c-94.9-58-142.2-110.7-179.2-168.6c-21.1-31.6-42.2-68.5-58-105.4
		s-26.3-79.1-36.9-121.2c-10.5-42.2-10.5-84.3-10.5-126.5V680.9l527-321.4V1250c0,337.3,247.7,621.8,563.9,690.4
		c-10.5,15.8-21.1,31.6-36.9,42.2C1154.1,2040.4,1106.6,2077.3,1043.4,2103.7L1043.4,2103.7z M1939.2,1365.9
		c-5.2,36.9-21.1,73.8-31.6,105.4c-15.9,31.6-31.6,63.2-52.7,94.9c-21.1,31.6-84.3,110.6-168.6,158.1
		c-84.3,47.4-163.4,63.2-210.8,73.8c31.6-84.3,52.7-168.6,52.7-263.5V601.8l421.6-242.4V1250
		C1949.8,1292.2,1949.8,1329.1,1939.2,1365.9z"/>
</g>
<g>
	<path d="M3894.8,881.8l-267.4,850.5h-55.3l-251.2-738c-3.2-10-6-20.4-8.4-31.3c-2.4,10.8-5.2,21.2-8.4,31.3l-251.8,738h-54.7
		l-268-850.5h51.1c11.6,0,19.1,5.4,22.3,16.2l214.6,699c4.4,16,8.4,34.2,12.1,54.7c2-10.5,4-20.2,6-29.2c2-9,4.4-17.5,7.3-25.5
		l240.4-699c1.6-4.4,4.4-8.2,8.4-11.4c4-3.2,8.8-4.8,14.4-4.8h16.9c5.6,0,10.2,1.5,13.8,4.5c3.6,3,6.4,6.9,8.4,11.7l240.4,699
		c2.8,7.6,5.3,16,7.5,25.2c2.2,9.2,4.3,18.8,6.3,28.8c2-10,3.9-19.6,5.7-28.6c1.8-9,3.7-17.5,5.7-25.5l214.6-699
		c1.2-4.4,3.9-8.2,8.1-11.4c4.2-3.2,9.1-4.8,14.8-4.8L3894.8,881.8L3894.8,881.8z"/>
	<g>
		<path d="M5084.2,881.8h-60.7l-348,850.5h46.9c5.6,0,10.5-1.6,14.4-4.8c4-3.2,6.8-7,8.4-11.4l93.5-231.5l0,0l0,0l6.2-15.4l0,0
			l0.7-1.6l-19.3,3.4l-7.9-45l47.6-8.4l5.9-14.4l164.8-408.8c3.2-7.2,6.2-15.1,9-23.7c2.8-8.6,5.4-17.7,7.8-27.3
			c5.6,19.6,11.4,36.4,17.5,50.5l145.8,361.9l0,0l-6.1-14.9l6.1,14.9l37.9-6.7l7.9,45l-28.2,5l28.3,70.1l0,0l4.7,11.8v0.1v-0.1
			l95,235.2c2,4.8,4.8,8.7,8.4,11.7s8.2,4.5,13.8,4.5h47.5L5084.2,881.8z"/>
		<polygon points="4863.6,1423.4 5095.8,1423.4 5234.2,1398.9 5216.8,1355.6 4866,1417.4 		"/>
		<polygon points="4818.4,1425.8 4826.3,1470.8 4845.6,1467.4 4866,1417.4 		"/>
		<polygon points="4863.6,1423.4 4866,1417.4 4866,1417.4 4845.6,1467.4 5095.8,1423.4 		"/>
		<polygon points="5262.6,1393.9 5254.6,1348.8 5216.8,1355.6 5234.3,1398.9 		"/>
		<polygon points="5234.3,1398.9 5216.8,1355.6 5216.8,1355.6 5234.2,1398.9 		"/>
	</g>
	<path d="M6819.3,1680v52.3h-464.6V881.8h61.9V1680H6819.3z"/>
	<path d="M8208.8,1680v52.3h-464.6V881.8h61.9V1680H8208.8z"/>
</g>
</svg>
